Coordinates
version=1
nRows=11
nColumns=36
inDegrees=yes

Units are S.I. units (second, meters, Newtons, ...)
If the header above contains a line with 'inDegrees', this indicates whether rotational values are in degrees (yes) or radians (no).

endheader
time	pelvis_tilt	pelvis_list	pelvis_rotation	pelvis_tx	pelvis_ty	pelvis_tz	hip_flexion_r	hip_adduction_r	hip_rotation_r	knee_angle_r	knee_angle_r_beta	ankle_angle_r	subtalar_angle_r	mtp_angle_r	hip_flexion_l	hip_adduction_l	hip_rotation_l	knee_angle_l	knee_angle_l_beta	ankle_angle_l	subtalar_angle_l	mtp_angle_l	lumbar_extension	lumbar_bending	lumbar_rotation	arm_flex_r	arm_add_r	arm_rot_r	elbow_flex_r	pro_sup_r	arm_flex_l	arm_add_l	arm_rot_l	elbow_flex_l	pro_sup_l
     44.78333330	      1.53821629	     -3.14447654	     -0.70635944	      0.58113088	      0.77831260	      0.71707996	     31.75975990	      4.15573105	     -0.78933800	     18.37354149	      0.32067879	      0.12002415	     -7.32142785	     -7.49999987	    -15.87655107	     -0.94942401	      2.19970439	     20.15530319	      0.35177640	     16.29587610	     -1.85311690	     -7.49999987	    -12.69729478	      4.98494050	     -7.28664833	      3.66551734	    -12.48112643	     -2.16711476	     11.67371645	     95.13025745	     12.47000160	    -16.21442993	      3.63959091	     22.95535750	     92.28868972
     44.80000000	      1.81673897	     -3.06809799	     -0.48109461	      0.58346343	      0.77969284	      0.71838452	     31.87206951	      4.01011152	     -1.36176917	     21.59153119	      0.37684331	     -0.07954561	     -7.55039547	     -7.49999987	    -15.55172040	     -1.15524069	      0.97913015	     22.54532841	      0.39349021	     13.60191035	     -1.29533149	     -7.49999987	    -13.30249446	      5.09407980	     -7.46036561	      3.42250083	    -12.66110889	     -2.06964974	     11.69322167	     95.24097920	     12.39120036	    -16.08492575	      3.70122893	     22.68916662	     92.41805633
     44.81666670	      0.58803036	     -2.19747228	     -0.30959643	      0.58444681	      0.78215771	      0.72052166	     33.68717956	      3.10539019	     -1.50509133	     25.42916966	      0.44382274	      1.13022916	     -6.77519258	     -7.49999987	    -12.75380006	     -0.66117174	     -0.28119551	     26.23093489	      0.45781618	     10.71028411	     -0.42286000	     -7.49999987	    -11.71006743	      4.10538353	     -7.71278043	      2.54763473	    -12.67388865	     -1.51033236	     11.84607770	     95.75877159	     12.11362718	    -16.01864588	      4.00047164	     21.66678239	     93.04279277
     44.83333330	      1.06792710	     -2.25661596	     -0.08472017	      0.58491789	      0.78865363	      0.72247941	     32.55858191	      3.26213848	     -1.63311249	     27.46892920	      0.47942326	      1.48357405	     -7.01931958	     -7.49999987	    -11.07237304	     -1.42389833	     -2.22471725	     30.88273653	      0.53900543	      6.18090706	      0.22251749	     -7.49999987	    -12.49285944	      4.23709271	     -7.73929585	      2.41116589	    -12.88203111	     -1.45074370	     11.98083944	     95.70378191	     12.00694687	    -15.91654591	      4.04279851	     21.52157106	     93.02496392
     44.85000000	     -0.37165828	     -2.22731166	      0.44496266	      0.58761827	      0.79191395	      0.72355172	     33.26051677	      3.15695240	     -2.10675527	     29.11935806	      0.50822867	      2.18286255	     -7.01187863	     -7.49999987	     -5.79712957	     -2.45401462	     -3.73469199	     38.10751177	      0.66510155	      1.39130615	      0.44143037	     -7.49999987	    -10.58221852	      4.24512305	     -7.94864827	      1.61964598	    -13.22478683	     -0.89255170	     11.94520374	     96.01340041	     11.84973693	    -15.50432070	      4.49334931	     20.13209015	     93.59775471
     44.86666670	     -0.34826971	     -2.83484707	      0.94958035	      0.59362011	      0.79620834	      0.72563628	     31.60398734	      3.83249332	     -2.63925326	     29.20015014	      0.50963876	      2.60596835	     -7.37331705	     -7.49999987	     -2.03865463	     -4.31396202	     -5.04761926	     45.11993951	      0.78749150	     -3.99944169	      0.32104872	     -7.49999987	    -10.61550045	      4.92400980	     -7.69015229	      1.13146526	    -13.65260533	     -0.75687348	     11.98219293	     96.00195476	     11.70690860	    -15.09517751	      4.59679324	     19.83178722	     93.67082251
     44.88333330	     -1.28898014	     -3.45056755	      1.57100855	      0.60254912	      0.79900218	      0.72995932	     30.62436688	      4.52599347	     -3.12542571	     28.70230700	      0.50094976	      2.97014652	     -7.86120390	     -7.49999987	      2.43882594	     -6.09860725	     -5.46886518	     51.32178467	      0.89573412	     -8.09618847	      0.37895170	     -7.49999987	     -8.78714967	      5.45760125	     -7.83344853	      0.13095142	    -13.98917234	     -0.56156713	     12.11437312	     95.93814230	     11.06656089	    -14.60322027	      4.71878625	     18.66478694	     93.75832413
     44.90000000	     -2.65116235	     -3.96516821	      2.20381561	      0.61046550	      0.79977705	      0.73400700	     29.98047115	      5.12472032	     -3.45980455	     28.20652822	      0.49229679	      3.85320332	     -8.26500345	     -7.49999987	      6.76925367	     -7.50718714	     -5.24336733	     56.11881731	      0.97945813	    -10.31430860	      0.77721650	     -7.49999987	     -5.99823171	      5.67699105	     -8.10301597	     -0.98166257	    -14.11368580	     -0.25064047	     11.89879819	     95.96971967	     10.20860268	    -14.15475053	      4.89335234	     17.03850835	     93.98944932
     44.91666670	     -3.55421606	     -4.54703327	      3.01999137	      0.61500939	      0.80016399	      0.73511408	     28.59890487	      5.68595341	     -3.94632568	     27.36004902	      0.47752294	      4.96631833	     -8.36153463	     -7.49999987	     10.12245022	     -8.66994585	     -4.49795683	     59.45993818	      1.03777169	    -10.98042476	      1.17895771	     -7.49999987	     -3.65459626	      5.97077338	     -8.55108379	     -1.90094945	    -14.11438926	     -0.06499393	     11.62051238	     95.18038659	      9.29142731	    -13.75562000	      5.00308633	     15.82602056	     93.39693231
     44.93333330	     -4.77206335	     -4.97380564	      3.67294593	      0.61714589	      0.79978630	      0.73510374	     27.58189027	      6.06120954	     -4.37128584	     26.50449642	      0.46259073	      6.19178695	     -8.30291537	     -7.49999987	     13.53406629	     -9.37980603	     -3.74510487	     61.79761454	      1.07857184	    -10.59283469	      0.90567262	     -7.49999987	     -0.90875274	      6.02857900	     -8.91574538	     -2.82255643	    -14.11215236	      0.32689261	     11.32672091	     95.26074461	      8.31922660	    -13.34982427	      5.20474045	     14.64429732	     93.53593342
     44.95000000	     -5.78708055	     -5.28098395	      4.11469103	      0.61758083	      0.79983501	      0.73604493	     26.38996483	      6.39582938	     -4.63900348	     25.52320987	      0.44546405	      7.29004702	     -8.44666628	     -7.49999987	     16.54386144	     -9.69950683	     -3.06679855	     63.32801389	      1.10528235	     -9.42010983	     -0.11513954	     -7.49999987	      1.49684614	      5.95929372	     -9.03015191	     -3.44539598	    -14.06275217	      0.72850465	     11.13792890	     95.24859577	      7.46215656	    -13.02527666	      5.35054789	     13.67200462	     93.54954348
